<svg width="131" height="51" viewBox="0 0 131 51" fill="none" xmlns="http://www.w3.org/2000/svg">
<path d="M38.1074 12.5315C38.0628 12.0033 37.6179 11.5986 37.0878 11.6038H29.3383V8.6671C29.3383 3.88028 25.4577 0 20.6712 0C15.8844 0 12.0041 3.88028 12.0041 8.6671V11.6038H4.25474C3.72699 11.6058 3.28646 12.0065 3.23508 12.5315L0.563654 43.2439C0.442171 44.6678 0.923323 46.0778 1.8908 47.1306C2.85789 48.1829 4.22208 48.7815 5.65159 48.7803H35.7009C37.1304 48.7815 38.4946 48.1829 39.4616 47.1306C40.4291 46.0778 40.9107 44.6678 40.7892 43.2439L38.1074 12.5315ZM14.0435 8.6671C14.0435 5.00669 17.0108 2.03932 20.6712 2.03932C24.3317 2.03932 27.299 5.00669 27.299 8.6671V11.6038H14.0435V8.6671ZM37.9545 45.752C37.3777 46.3869 36.5584 46.7466 35.7009 46.741H5.64124C4.78369 46.7414 3.96557 46.3817 3.38564 45.75C2.80611 45.1179 2.51813 44.2715 2.59262 43.4172L5.18239 13.6431H12.0041V20.0056C10.3643 20.5103 9.34029 22.1382 9.5956 23.8349C9.85052 25.5313 11.3083 26.786 13.0238 26.786C14.7393 26.786 16.1967 25.5313 16.452 23.8349C16.7069 22.1382 15.6829 20.5103 14.0435 20.0056V13.6328H27.299V20.0056C25.6592 20.5103 24.6352 22.1382 24.8905 23.8349C25.1454 25.5313 26.6032 26.786 28.3187 26.786C30.0342 26.786 31.4916 25.5313 31.7469 23.8349C32.0018 22.1382 30.9778 20.5103 29.3383 20.0056V13.6328H36.1497L38.7395 43.4068C38.8232 44.2648 38.5376 45.1175 37.9545 45.752ZM12.8709 21.9024C12.9724 21.9159 13.0752 21.9159 13.1768 21.9024C13.9307 21.9836 14.49 22.6408 14.4493 23.398C14.4083 24.1556 13.7822 24.749 13.0238 24.749C12.265 24.749 11.6389 24.1556 11.5983 23.398C11.5576 22.6408 12.1165 21.9836 12.8709 21.9024ZM28.1657 21.9024C28.2673 21.9159 28.3701 21.9159 28.4716 21.9024C29.2256 21.9836 29.7848 22.6408 29.7442 23.398C29.7032 24.1556 29.0771 24.749 28.3187 24.749C27.5599 24.749 26.9338 24.1556 26.8932 23.398C26.8525 22.6408 27.4114 21.9836 28.1657 21.9024Z" fill="black"/>
<path d="M24.9464 29.2217V30.8957H21.6164V41.7317H19.5644V30.8957H16.2164V29.2217H24.9464Z" fill="#29A867"/>
<path d="M52.432 29.49V31.164H49.102V42H47.05V31.164H43.702V29.49H52.432ZM63.4922 32.082V42H61.4402V40.83C61.1162 41.238 60.6902 41.562 60.1622 41.802C59.6462 42.03 59.0942 42.144 58.5062 42.144C57.7262 42.144 57.0242 41.982 56.4002 41.658C55.7882 41.334 55.3022 40.854 54.9422 40.218C54.5942 39.582 54.4202 38.814 54.4202 37.914V32.082H56.4542V37.608C56.4542 38.496 56.6762 39.18 57.1202 39.66C57.5642 40.128 58.1702 40.362 58.9382 40.362C59.7062 40.362 60.3122 40.128 60.7562 39.66C61.2122 39.18 61.4402 38.496 61.4402 37.608V32.082H63.4922ZM70.1236 37.05L74.6956 42H71.9236L68.2516 37.734V42H66.1996V28.68H68.2516V36.42L71.8516 32.082H74.6956L70.1236 37.05ZM75.4824 36.996C75.4824 36 75.6864 35.118 76.0944 34.35C76.5144 33.582 77.0784 32.988 77.7864 32.568C78.5064 32.136 79.2984 31.92 80.1624 31.92C80.9424 31.92 81.6204 32.076 82.1964 32.388C82.7844 32.688 83.2524 33.066 83.6004 33.522V32.082H85.6704V42H83.6004V40.524C83.2524 40.992 82.7784 41.382 82.1784 41.694C81.5784 42.006 80.8944 42.162 80.1264 42.162C79.2744 42.162 78.4944 41.946 77.7864 41.514C77.0784 41.07 76.5144 40.458 76.0944 39.678C75.6864 38.886 75.4824 37.992 75.4824 36.996ZM83.6004 37.032C83.6004 36.348 83.4564 35.754 83.1684 35.25C82.8924 34.746 82.5264 34.362 82.0704 34.098C81.6144 33.834 81.1224 33.702 80.5944 33.702C80.0664 33.702 79.5744 33.834 79.1184 34.098C78.6624 34.35 78.2904 34.728 78.0024 35.232C77.7264 35.724 77.5884 36.312 77.5884 36.996C77.5884 37.68 77.7264 38.28 78.0024 38.796C78.2904 39.312 78.6624 39.708 79.1184 39.984C79.5864 40.248 80.0784 40.38 80.5944 40.38C81.1224 40.38 81.6144 40.248 82.0704 39.984C82.5264 39.72 82.8924 39.336 83.1684 38.832C83.4564 38.316 83.6004 37.716 83.6004 37.032ZM96.4476 29.49V31.164H93.1176V42H91.0656V31.164H87.7176V29.49H96.4476ZM107.508 32.082V42H105.456V40.83C105.132 41.238 104.706 41.562 104.178 41.802C103.662 42.03 103.11 42.144 102.522 42.144C101.742 42.144 101.04 41.982 100.416 41.658C99.8038 41.334 99.3178 40.854 98.9578 40.218C98.6098 39.582 98.4358 38.814 98.4358 37.914V32.082H100.47V37.608C100.47 38.496 100.692 39.18 101.136 39.66C101.58 40.128 102.186 40.362 102.954 40.362C103.722 40.362 104.328 40.128 104.772 39.66C105.228 39.18 105.456 38.496 105.456 37.608V32.082H107.508ZM114.139 37.05L118.711 42H115.939L112.267 37.734V42H110.215V28.68H112.267V36.42L115.867 32.082H118.711L114.139 37.05ZM129.164 32.082V42H127.112V40.83C126.788 41.238 126.362 41.562 125.834 41.802C125.318 42.03 124.766 42.144 124.178 42.144C123.398 42.144 122.696 41.982 122.072 41.658C121.46 41.334 120.974 40.854 120.614 40.218C120.266 39.582 120.092 38.814 120.092 37.914V32.082H122.126V37.608C122.126 38.496 122.348 39.18 122.792 39.66C123.236 40.128 123.842 40.362 124.61 40.362C125.378 40.362 125.984 40.128 126.428 39.66C126.884 39.18 127.112 38.496 127.112 37.608V32.082H129.164Z" fill="#29A867"/>
</svg>
