<svg width="129" height="51" viewBox="0 0 129 51" fill="none" xmlns="http://www.w3.org/2000/svg">
<path d="M38.1075 12.5315C38.0629 12.0033 37.618 11.5986 37.0879 11.6038H29.3385V8.6671C29.3385 3.88028 25.4578 0 20.6714 0C15.8845 0 12.0043 3.88028 12.0043 8.6671V11.6038H4.25486C3.72711 11.6058 3.28658 12.0065 3.2352 12.5315L0.563776 43.2439C0.442293 44.6678 0.923445 46.0778 1.89093 47.1306C2.85801 48.1829 4.2222 48.7815 5.65171 48.7803H35.701C37.1305 48.7815 38.4947 48.1829 39.4618 47.1306C40.4292 46.0778 40.9108 44.6678 40.7893 43.2439L38.1075 12.5315ZM14.0436 8.6671C14.0436 5.00669 17.011 2.03932 20.6714 2.03932C24.3318 2.03932 27.2992 5.00669 27.2992 8.6671V11.6038H14.0436V8.6671ZM37.9546 45.752C37.3778 46.3869 36.5585 46.7466 35.701 46.741H5.64136C4.78381 46.7414 3.96569 46.3817 3.38576 45.75C2.80623 45.1179 2.51825 44.2715 2.59274 43.4172L5.18251 13.6431H12.0043V20.0056C10.3644 20.5103 9.34041 22.1382 9.59572 23.8349C9.85064 25.5313 11.3084 26.786 13.0239 26.786C14.7394 26.786 16.1968 25.5313 16.4521 23.8349C16.707 22.1382 15.683 20.5103 14.0436 20.0056V13.6328H27.2992V20.0056C25.6593 20.5103 24.6353 22.1382 24.8906 23.8349C25.1455 25.5313 26.6033 26.786 28.3188 26.786C30.0343 26.786 31.4917 25.5313 31.747 23.8349C32.0019 22.1382 30.9779 20.5103 29.3385 20.0056V13.6328H36.1499L38.7396 43.4068C38.8233 44.2648 38.5377 45.1175 37.9546 45.752ZM12.871 21.9024C12.9725 21.9159 13.0753 21.9159 13.1769 21.9024C13.9309 21.9836 14.4901 22.6408 14.4495 23.398C14.4084 24.1556 13.7823 24.749 13.0239 24.749C12.2652 24.749 11.639 24.1556 11.5984 23.398C11.5578 22.6408 12.1166 21.9836 12.871 21.9024ZM28.1659 21.9024C28.2674 21.9159 28.3702 21.9159 28.4718 21.9024C29.2257 21.9836 29.785 22.6408 29.7443 23.398C29.7033 24.1556 29.0772 24.749 28.3188 24.749C27.56 24.749 26.9339 24.1556 26.8933 23.398C26.8527 22.6408 27.4115 21.9836 28.1659 21.9024Z" fill="black"/>
<path d="M53.432 26.49V28.164H50.102V39H48.05V28.164H44.702V26.49H53.432ZM64.4922 29.082V39H62.4402V37.83C62.1162 38.238 61.6902 38.562 61.1622 38.802C60.6462 39.03 60.0942 39.144 59.5062 39.144C58.7262 39.144 58.0242 38.982 57.4002 38.658C56.7882 38.334 56.3022 37.854 55.9422 37.218C55.5942 36.582 55.4202 35.814 55.4202 34.914V29.082H57.4542V34.608C57.4542 35.496 57.6762 36.18 58.1202 36.66C58.5642 37.128 59.1702 37.362 59.9382 37.362C60.7062 37.362 61.3122 37.128 61.7562 36.66C62.2122 36.18 62.4402 35.496 62.4402 34.608V29.082H64.4922ZM71.1236 34.05L75.6956 39H72.9236L69.2516 34.734V39H67.1996V25.68H69.2516V33.42L72.8516 29.082H75.6956L71.1236 34.05ZM76.4824 33.996C76.4824 33 76.6864 32.118 77.0944 31.35C77.5144 30.582 78.0784 29.988 78.7864 29.568C79.5064 29.136 80.2984 28.92 81.1624 28.92C81.9424 28.92 82.6204 29.076 83.1964 29.388C83.7844 29.688 84.2524 30.066 84.6004 30.522V29.082H86.6704V39H84.6004V37.524C84.2524 37.992 83.7784 38.382 83.1784 38.694C82.5784 39.006 81.8944 39.162 81.1264 39.162C80.2744 39.162 79.4944 38.946 78.7864 38.514C78.0784 38.07 77.5144 37.458 77.0944 36.678C76.6864 35.886 76.4824 34.992 76.4824 33.996ZM84.6004 34.032C84.6004 33.348 84.4564 32.754 84.1684 32.25C83.8924 31.746 83.5264 31.362 83.0704 31.098C82.6144 30.834 82.1224 30.702 81.5944 30.702C81.0664 30.702 80.5744 30.834 80.1184 31.098C79.6624 31.35 79.2904 31.728 79.0024 32.232C78.7264 32.724 78.5884 33.312 78.5884 33.996C78.5884 34.68 78.7264 35.28 79.0024 35.796C79.2904 36.312 79.6624 36.708 80.1184 36.984C80.5864 37.248 81.0784 37.38 81.5944 37.38C82.1224 37.38 82.6144 37.248 83.0704 36.984C83.5264 36.72 83.8924 36.336 84.1684 35.832C84.4564 35.316 84.6004 34.716 84.6004 34.032ZM91.7596 30.756V36.246C91.7596 36.618 91.8436 36.888 92.0116 37.056C92.1916 37.212 92.4916 37.29 92.9116 37.29H94.1716V39H92.5516C91.6276 39 90.9196 38.784 90.4276 38.352C89.9356 37.92 89.6896 37.218 89.6896 36.246V30.756H88.5196V29.082H89.6896V26.616H91.7596V29.082H94.1716V30.756H91.7596ZM105.045 29.082V39H102.993V37.83C102.669 38.238 102.243 38.562 101.715 38.802C101.199 39.03 100.647 39.144 100.059 39.144C99.2789 39.144 98.5769 38.982 97.9529 38.658C97.3409 38.334 96.8549 37.854 96.4949 37.218C96.1469 36.582 95.9729 35.814 95.9729 34.914V29.082H98.0069V34.608C98.0069 35.496 98.2289 36.18 98.6729 36.66C99.1169 37.128 99.7229 37.362 100.491 37.362C101.259 37.362 101.865 37.128 102.309 36.66C102.765 36.18 102.993 35.496 102.993 34.608V29.082H105.045ZM111.676 34.05L116.248 39H113.476L109.804 34.734V39H107.752V25.68H109.804V33.42L113.404 29.082H116.248L111.676 34.05ZM126.701 29.082V39H124.649V37.83C124.325 38.238 123.899 38.562 123.371 38.802C122.855 39.03 122.303 39.144 121.715 39.144C120.935 39.144 120.233 38.982 119.609 38.658C118.997 38.334 118.511 37.854 118.151 37.218C117.803 36.582 117.629 35.814 117.629 34.914V29.082H119.663V34.608C119.663 35.496 119.885 36.18 120.329 36.66C120.773 37.128 121.379 37.362 122.147 37.362C122.915 37.362 123.521 37.128 123.965 36.66C124.421 36.18 124.649 35.496 124.649 34.608V29.082H126.701Z" fill="#29A867"/>
<path d="M24.9465 29.2217V30.8957H21.6165V41.7317H19.5645V30.8957H16.2165V29.2217H24.9465Z" fill="#29A867"/>
</svg>
